<?xml version="1.0" standalone="no"?>
<svg version="1.1" style="overflow: hidden;" width="1000" height="1000" xmlns="http://www.w3.org/2000/svg"><defs></defs><g id="t181174.10505101847wo-20" transform="matrix(1.299999 0 0 1.299999 -150 -150)" opacity="1" filter="blur(70px)"><g id="t181174.10505101847wo-413" transform="matrix(1 0 0 1 0 0)" opacity="1" filter="url(#2W622XdbGxs_EzT2l3ZFH_blur)"><g id="t181174.10505101847wo-414" transform="matrix(1 0 0 1 0 0)" opacity="1"><path transform="matrix(1.019999 0 0 1.019999 432.914245 378.520446)" id="t181174.10505101847wo-415" d="M -204.863152 99.851804 L -13.514247 -378.520458 L 182.612069 -378.520458 L 204.863151 44.250116 L 4.96451 378.520457 L -84.866626 334.874587 Z " fill="#b5cc6a" stroke="undefined" stroke-width="0" stroke-opacity="1" fill-opacity="1" visibility="visible" stroke-linecap="butt" stroke-linejoin="miter" stroke-miterlimit="4"></path></g><g id="t181174.10505101847wo-416" transform="matrix(1 0 0 1 0 0)" opacity="1"><path transform="matrix(1.019999 0 0 1.019999 277.170715 856.697509)" id="t181174.10505101847wo-417" d="M -277.170723 143.302477 L -277.170723 -94.207599 L 70.876898 -143.302478 L 160.708034 -99.656608 L 277.170722 143.302477 Z " fill="#b5cc6a" stroke="undefined" stroke-width="0" stroke-opacity="1" fill-opacity="1" visibility="visible" stroke-linecap="butt" stroke-linejoin="miter" stroke-miterlimit="4"></path></g><g id="t181174.10505101847wo-418" transform="matrix(1 0 0 1 0 0)" opacity="1"><path transform="matrix(1.019999 0 0 1.019999 807.763183 273.112365)" id="t181174.10505101847wo-419" d="M 192.236842 -273.11236 L 192.236842 273.112359 L -169.98576 149.658214 L -192.236843 -273.11236 Z " fill="#b5cc6a" stroke="undefined" stroke-width="0" stroke-opacity="1" fill-opacity="1" visibility="visible" stroke-linecap="butt" stroke-linejoin="miter" stroke-miterlimit="4"></path></g><g id="t181174.10505101847wo-420" transform="matrix(1 0 0 1 0 0)" opacity="1"><path transform="matrix(1.019999 0 0 1.019999 236.907318 239.186126)" id="t181174.10505101847wo-421" d="M 182.492682 -239.186132 L -8.856223 239.186131 L -125.825165 183.244463 L -182.492683 -239.186132 Z " fill="#6da67a" stroke="undefined" stroke-width="0" stroke-opacity="1" fill-opacity="1" visibility="visible" stroke-linecap="butt" stroke-linejoin="miter" stroke-miterlimit="4"></path></g><g id="t181174.10505101847wo-422" transform="matrix(1 0 0 1 0 0)" opacity="1"><path transform="matrix(1.019999 0 0 1.019999 174.023803 592.460266)" id="t181174.10505101847wo-423" d="M 54.027284 -114.087997 L 174.02381 120.934786 L -174.023811 170.029664 L -174.023811 -149.352035 L -62.941658 -170.029665 Z " fill="#a9bd68" stroke="undefined" stroke-width="0" stroke-opacity="1" fill-opacity="1" visibility="visible" stroke-linecap="butt" stroke-linejoin="miter" stroke-miterlimit="4"></path></g><g id="t181174.10505101847wo-424" transform="matrix(1 0 0 1 0 0)" opacity="1"><path transform="matrix(1.019999 0 0 1.019999 55.541076 221.554107)" id="t181174.10505101847wo-425" d="M -55.541077 -221.554113 L -1.126443 -221.554113 L 55.541076 200.876482 L -55.541077 221.554112 Z " fill="#a9bd68" stroke="undefined" stroke-width="0" stroke-opacity="1" fill-opacity="1" visibility="visible" stroke-linecap="butt" stroke-linejoin="miter" stroke-miterlimit="4"></path></g><g id="t181174.10505101847wo-426" transform="matrix(1 0 0 1 0 0)" opacity="1"><path transform="matrix(1.019999 0 0 1.019999 718.939392 711.385314)" id="t181174.10505101847wo-427" d="M 281.060621 288.614712 L -164.597934 288.614712 L -281.060622 45.655628 L -81.161981 -288.614713 L 281.060621 -165.160568 Z " fill="#99a66d" stroke="undefined" stroke-width="0" stroke-opacity="1" fill-opacity="1" visibility="visible" stroke-linecap="butt" stroke-linejoin="miter" stroke-miterlimit="4"></path></g></g></g><defs>
  <filter class="blurs" id="2W622XdbGxs_EzT2l3ZFH_blur" x="0" y="0" width="100%" height="100%">
    <feGaussianBlur in="SourceGraphic" stdDeviation="70"></feGaussianBlur>
    <feComponentTransfer in="Blurred">
      <feFuncR type="linear" slope="1" intercept="0"></feFuncR>
      <feFuncG type="linear" slope="1" intercept="0"></feFuncG>
      <feFuncB type="linear" slope="1" intercept="0"></feFuncB>
      <feFuncA type="discrete" tableValues="1.0"></feFuncA>
    </feComponentTransfer>
  </filter></defs></svg>