<svg xmlns="http://www.w3.org/2000/svg" xmlns:xlink="http://www.w3.org/1999/xlink" width="50" zoomAndPan="magnify" viewBox="0 0 37.5 37.499999" height="50" preserveAspectRatio="xMidYMid meet" version="1.0"><defs><clipPath id="0865aade12"><path d="M 0 0 L 37.007812 0 L 37.007812 37.007812 L 0 37.007812 Z M 0 0 " clip-rule="nonzero"/></clipPath></defs><g clip-path="url(#0865aade12)"><path fill="#162651" d="M 18.75 0 C 29.105469 0 37.5 8.394531 37.5 18.75 C 37.5 29.105469 29.105469 37.5 18.75 37.5 C 8.394531 37.5 0 29.105469 0 18.75 C 0 8.394531 8.394531 0 18.75 0 " fill-opacity="1" fill-rule="nonzero"/></g><path fill="#fafaff" d="M 23.996094 10.277344 L 23.996094 10.207031 L 24.035156 10.136719 C 24.289062 9.667969 24.730469 9.800781 25.015625 10.054688 L 25.132812 10.160156 L 25.097656 10.503906 C 25.992188 10.910156 26.507812 11.523438 26.507812 12.355469 L 27.992188 12.703125 L 30.191406 15.109375 L 30.199219 15.851562 L 34.605469 18.699219 L 34.617188 22.828125 L 3.6875 22.828125 L 5.796875 18.757812 L 5.113281 18.757812 L 5.113281 16.492188 L 6.972656 16.492188 L 8.246094 14.035156 L 9.066406 14.035156 L 9.066406 13.5 L 10.117188 13.5 C 9.507812 13.082031 9.105469 12.09375 9.105469 11.011719 C 9.105469 8.628906 11.042969 6.699219 13.429688 6.699219 C 13.761719 6.699219 14.085938 6.738281 14.394531 6.808594 C 14.910156 6.925781 15.394531 7.136719 15.824219 7.417969 L 16.273438 7.613281 L 16.332031 5.339844 C 16.335938 4.992188 16.660156 4.835938 16.839844 4.777344 C 17.066406 4.703125 17.34375 4.671875 17.605469 4.679688 C 17.867188 4.691406 18.152344 4.734375 18.378906 4.835938 C 18.59375 4.929688 18.863281 5.125 18.863281 5.46875 L 18.863281 9.398438 L 19.113281 9.554688 L 19.113281 8.59375 L 19.140625 8.535156 C 19.328125 8.09375 19.710938 7.820312 20.132812 7.714844 L 20.132812 7.253906 C 20.441406 7.121094 20.742188 7.121094 21.035156 7.253906 L 21.035156 7.742188 C 21.570312 7.90625 22.03125 8.347656 22.128906 9.074219 L 22.132812 9.09375 L 22.132812 11.683594 L 22.230469 11.746094 L 22.265625 11.316406 L 22.269531 11.296875 C 22.433594 10.535156 23.113281 10.261719 23.996094 10.277344 " fill-opacity="1" fill-rule="nonzero"/><path fill="#67aac3" d="M 1.867188 18.75 C 1.867188 9.425781 9.425781 1.867188 18.75 1.867188 C 28.074219 1.867188 35.632812 9.425781 35.632812 18.75 C 35.632812 28.074219 28.074219 35.632812 18.75 35.632812 C 9.425781 35.632812 1.867188 28.074219 1.867188 18.75 " fill-opacity="1" fill-rule="nonzero"/><path fill="#162651" d="M 34.609375 19.074219 L 34.617188 22.515625 L 4.199219 22.515625 L 8.4375 14.347656 L 9.378906 14.347656 L 9.378906 13.808594 L 10.292969 13.808594 L 14.324219 7.113281 L 16.574219 8.082031 L 16.640625 5.347656 C 16.640625 4.855469 18.550781 4.855469 18.550781 5.46875 L 18.550781 9.570312 L 19.425781 10.109375 L 19.425781 8.65625 C 19.601562 8.242188 20.011719 8.011719 20.441406 7.980469 L 20.441406 7.5625 C 20.535156 7.488281 20.628906 7.488281 20.726562 7.5625 L 20.726562 7.988281 C 21.242188 8.058594 21.730469 8.425781 21.820312 9.113281 L 21.820312 11.859375 L 22.5 12.277344 L 22.574219 11.359375 C 22.699219 10.765625 23.277344 10.515625 24.308594 10.609375 L 24.308594 10.285156 C 24.417969 10.085938 24.582031 10.085938 24.804688 10.285156 L 24.765625 10.703125 C 25.824219 11.117188 26.292969 11.75 26.179688 12.597656 L 27.828125 12.984375 L 29.882812 15.230469 L 29.886719 16.019531 L 34.609375 19.074219 " fill-opacity="1" fill-rule="nonzero"/><path fill="#162651" d="M 9.417969 11.011719 C 9.417969 8.804688 11.214844 7.011719 13.429688 7.011719 C 15.648438 7.011719 17.445312 8.804688 17.445312 11.011719 C 17.445312 13.222656 15.648438 15.015625 13.429688 15.015625 C 11.214844 15.015625 9.417969 13.222656 9.417969 11.011719 " fill-opacity="1" fill-rule="nonzero"/><path fill="#fafaff" d="M 16.394531 10.878906 C 16.394531 9.109375 14.960938 7.675781 13.195312 7.675781 C 13.03125 7.675781 12.875 7.6875 12.71875 7.710938 C 14.261719 7.941406 15.445312 9.273438 15.445312 10.878906 C 15.445312 12.484375 14.261719 13.8125 12.71875 14.042969 C 12.875 14.066406 13.03125 14.078125 13.195312 14.078125 C 14.960938 14.078125 16.394531 12.644531 16.394531 10.878906 " fill-opacity="1" fill-rule="nonzero"/><path fill="#fafaff" d="M 26.074219 15.375 L 17.222656 9.699219 C 17.730469 11.324219 17.453125 12.621094 16.445312 13.375 L 25.710938 17.1875 C 26.277344 16.816406 26.425781 15.753906 26.074219 15.375 " fill-opacity="1" fill-rule="evenodd"/><path fill="#fafaff" d="M 18.183594 5.785156 C 17.925781 5.515625 17.527344 5.378906 17.417969 5.804688 L 17.457031 8.808594 L 18.160156 9.296875 L 18.183594 5.785156 " fill-opacity="1" fill-rule="evenodd"/><path fill="#fafaff" d="M 21.273438 11.417969 L 20.355469 10.839844 L 20.308594 9.15625 C 20.542969 8.710938 21.007812 8.648438 21.222656 9.375 L 21.273438 11.417969 " fill-opacity="1" fill-rule="evenodd"/><path fill="#fafaff" d="M 25.621094 14.1875 L 24.417969 13.433594 L 24.46875 11.355469 C 24.910156 11.089844 25.546875 11.578125 25.621094 12.082031 L 25.621094 14.1875 " fill-opacity="1" fill-rule="evenodd"/><path fill="#fafaff" d="M 7.375 18.472656 L 5.671875 21.703125 L 12.007812 21.703125 L 13.445312 18.515625 L 7.375 18.472656 " fill-opacity="1" fill-rule="evenodd"/><path fill="#162651" d="M 8.484375 18.164062 L 6.507812 21.808594 L 7.339844 21.808594 L 9.226562 18.101562 L 8.484375 18.164062 " fill-opacity="1" fill-rule="evenodd"/><path fill="#162651" d="M 10.328125 18.222656 L 8.351562 21.867188 L 9.1875 21.867188 L 11.070312 18.15625 L 10.328125 18.222656 " fill-opacity="1" fill-rule="evenodd"/><path fill="#162651" d="M 11.9375 18.210938 L 9.960938 21.859375 L 10.792969 21.859375 L 12.679688 18.148438 L 11.9375 18.210938 " fill-opacity="1" fill-rule="evenodd"/><path fill="#fafaff" d="M 16.191406 18.765625 C 16.222656 18.757812 16.257812 18.757812 16.289062 18.757812 C 16.839844 18.757812 17.289062 19.554688 17.289062 20.542969 C 17.289062 21.527344 16.839844 22.328125 16.289062 22.328125 C 16.179688 22.328125 16.078125 22.296875 15.980469 22.238281 C 16.484375 22.152344 16.878906 21.390625 16.878906 20.460938 C 16.878906 19.671875 16.589844 19 16.191406 18.765625 " fill-opacity="1" fill-rule="nonzero"/><path fill="#fafaff" d="M 21.167969 20.304688 C 21.179688 20.402344 21.183594 20.503906 21.183594 20.609375 C 21.183594 21.644531 20.714844 22.480469 20.136719 22.480469 C 20.011719 22.480469 19.890625 22.441406 19.78125 22.371094 C 20.339844 22.371094 20.792969 21.601562 20.828125 20.625 C 20.964844 20.523438 21.078125 20.417969 21.167969 20.304688 " fill-opacity="1" fill-rule="nonzero"/><path fill="#fafaff" d="M 22.878906 17.433594 C 22.949219 17.410156 23.023438 17.398438 23.097656 17.398438 C 23.804688 17.398438 24.382812 18.519531 24.382812 19.902344 C 24.382812 21.285156 23.804688 22.40625 23.097656 22.40625 C 23.023438 22.40625 22.949219 22.394531 22.878906 22.371094 C 23.484375 22.167969 23.945312 21.140625 23.945312 19.902344 C 23.945312 18.664062 23.484375 17.636719 22.878906 17.433594 " fill-opacity="1" fill-rule="nonzero"/><path fill="#fafaff" d="M 26.058594 18.78125 L 26.085938 18.78125 C 26.597656 18.78125 27.011719 19.589844 27.011719 20.585938 C 27.011719 21.582031 26.597656 22.390625 26.085938 22.390625 C 25.984375 22.390625 25.882812 22.355469 25.789062 22.292969 C 26.289062 22.265625 26.6875 21.46875 26.6875 20.492188 C 26.6875 19.695312 26.425781 19.023438 26.058594 18.78125 " fill-opacity="1" fill-rule="nonzero"/><path fill="#fafaff" d="M 27.355469 13.417969 L 27.304688 14.792969 L 26.289062 14.746094 L 26.289062 13.347656 L 27.355469 13.417969 " fill-opacity="1" fill-rule="evenodd"/><path fill="#fafaff" d="M 17.613281 14.761719 L 15.667969 18.015625 L 14.859375 17.980469 L 16.703125 14.800781 L 17.480469 14.707031 L 17.613281 14.761719 " fill-opacity="1" fill-rule="evenodd"/><path fill="#fafaff" d="M 17.480469 14.707031 L 28.980469 19.316406 L 28.957031 19.5625 L 17.367188 15.042969 L 17.480469 14.707031 " fill-opacity="1" fill-rule="evenodd"/><path fill="#fafaff" d="M 18.324219 15.90625 C 18.351562 15.902344 18.378906 15.902344 18.402344 15.902344 C 18.996094 15.902344 19.476562 16.476562 19.476562 17.179688 C 19.476562 17.886719 18.996094 18.460938 18.402344 18.460938 C 18.296875 18.460938 18.191406 18.441406 18.09375 18.40625 C 18.652344 18.359375 19.09375 17.804688 19.09375 17.128906 C 19.09375 16.550781 18.769531 16.0625 18.324219 15.90625 " fill-opacity="1" fill-rule="nonzero"/><path fill="#fafaff" d="M 18.753906 15.972656 L 22.035156 17.390625 C 22.234375 17.558594 22.3125 17.75 22.269531 17.96875 L 19.351562 16.824219 L 18.753906 15.972656 " fill-opacity="1" fill-rule="evenodd"/><path fill="#fafaff" d="M 29.503906 17.234375 L 29.503906 15.414062 L 28.015625 13.859375 L 28.015625 14.179688 L 29.257812 15.515625 L 29.238281 17.230469 L 29.503906 17.234375 " fill-opacity="1" fill-rule="evenodd"/><path fill="#fafaff" d="M 29.625 20.589844 C 29.640625 20.585938 29.660156 20.585938 29.675781 20.585938 C 29.957031 20.585938 30.1875 20.992188 30.1875 21.496094 C 30.1875 22 29.957031 22.410156 29.675781 22.410156 C 29.621094 22.410156 29.566406 22.394531 29.515625 22.363281 C 29.773438 22.320312 29.976562 21.929688 29.976562 21.457031 C 29.976562 21.050781 29.828125 20.707031 29.625 20.589844 " fill-opacity="1" fill-rule="nonzero"/><path fill="#fafaff" d="M 32.324219 21.101562 C 32.339844 21.097656 32.351562 21.097656 32.363281 21.097656 C 32.582031 21.097656 32.761719 21.414062 32.761719 21.808594 C 32.761719 22.199219 32.582031 22.515625 32.363281 22.515625 C 32.320312 22.515625 32.28125 22.503906 32.242188 22.480469 C 32.441406 22.445312 32.597656 22.144531 32.597656 21.773438 C 32.597656 21.460938 32.484375 21.195312 32.324219 21.101562 " fill-opacity="1" fill-rule="nonzero"/><path fill="#162651" d="M 14 16.800781 L 5.421875 16.800781 L 5.421875 18.449219 L 14 18.449219 L 14 16.800781 " fill-opacity="1" fill-rule="evenodd"/><path fill="#162651" d="M 13.722656 25.84375 C 13.1875 25.898438 12.816406 26.25 12.898438 26.578125 C 13.492188 26.546875 13.832031 26.289062 13.898438 25.84375 C 13.832031 25.398438 13.492188 25.144531 12.898438 25.109375 C 12.816406 25.4375 13.1875 25.789062 13.722656 25.84375 " fill-opacity="1" fill-rule="evenodd"/><path fill="#162651" d="M 11.933594 26.578125 C 12.53125 26.546875 12.871094 26.289062 12.9375 25.84375 C 12.871094 25.398438 12.53125 25.144531 11.933594 25.109375 C 11.851562 25.4375 12.222656 25.789062 12.761719 25.84375 C 12.222656 25.898438 11.851562 26.25 11.933594 26.578125 " fill-opacity="1" fill-rule="evenodd"/><path fill="#162651" d="M 10.972656 26.578125 C 11.566406 26.546875 11.90625 26.289062 11.972656 25.84375 C 11.90625 25.398438 11.566406 25.144531 10.972656 25.109375 C 10.890625 25.4375 11.261719 25.789062 11.796875 25.84375 C 11.261719 25.898438 10.890625 26.25 10.972656 26.578125 " fill-opacity="1" fill-rule="evenodd"/><path fill="#162651" d="M 10.007812 26.578125 C 10.601562 26.546875 10.941406 26.289062 11.007812 25.84375 C 10.941406 25.398438 10.601562 25.144531 10.007812 25.109375 C 9.925781 25.4375 10.296875 25.789062 10.832031 25.84375 C 10.296875 25.898438 9.925781 26.25 10.007812 26.578125 " fill-opacity="1" fill-rule="evenodd"/><path fill="#162651" d="M 9.042969 26.578125 C 9.640625 26.546875 9.980469 26.289062 10.046875 25.84375 C 9.980469 25.398438 9.640625 25.144531 9.042969 25.109375 C 8.960938 25.4375 9.332031 25.789062 9.871094 25.84375 C 9.332031 25.898438 8.960938 26.25 9.042969 26.578125 " fill-opacity="1" fill-rule="evenodd"/><path fill="#162651" d="M 8.082031 26.578125 C 8.675781 26.546875 9.015625 26.289062 9.082031 25.84375 C 9.015625 25.398438 8.675781 25.144531 8.082031 25.109375 C 7.996094 25.4375 8.371094 25.789062 8.90625 25.84375 C 8.371094 25.898438 7.996094 26.25 8.082031 26.578125 " fill-opacity="1" fill-rule="evenodd"/><path fill="#162651" d="M 7.117188 26.578125 C 7.710938 26.546875 8.050781 26.289062 8.117188 25.84375 C 8.050781 25.398438 7.710938 25.144531 7.117188 25.109375 C 7.035156 25.4375 7.40625 25.789062 7.941406 25.84375 C 7.40625 25.898438 7.035156 26.25 7.117188 26.578125 " fill-opacity="1" fill-rule="evenodd"/><path fill="#162651" d="M 6.152344 26.578125 C 6.75 26.546875 7.089844 26.289062 7.15625 25.84375 C 7.089844 25.398438 6.75 25.144531 6.152344 25.109375 C 6.070312 25.4375 6.441406 25.789062 6.980469 25.84375 C 6.441406 25.898438 6.070312 26.25 6.152344 26.578125 " fill-opacity="1" fill-rule="evenodd"/><path fill="#162651" d="M 6.015625 25.84375 C 5.480469 25.898438 5.109375 26.25 5.191406 26.578125 C 5.785156 26.546875 6.125 26.289062 6.191406 25.84375 C 6.125 25.398438 5.785156 25.144531 5.191406 25.109375 C 5.109375 25.4375 5.480469 25.789062 6.015625 25.84375 " fill-opacity="1" fill-rule="evenodd"/><path fill="#162651" d="M 4.175781 26.046875 C 4.242188 25.726562 4.699219 25.574219 5.1875 25.730469 L 5.394531 25.832031 C 5.136719 26.199219 4.722656 26.277344 4.175781 26.046875 " fill-opacity="1" fill-rule="evenodd"/><path fill="#162651" d="M 13.28125 24.691406 C 14.015625 25.363281 14.289062 25.273438 14.835938 25.761719 L 16.042969 25.761719 C 16.09375 25.824219 16.09375 25.890625 16.042969 25.957031 L 14.847656 25.957031 C 14.484375 26.25 13.964844 26.578125 13.25 26.792969 C 13.789062 26.464844 14.125 26.136719 14.566406 25.84375 C 13.996094 25.457031 13.570312 25.070312 13.28125 24.691406 " fill-opacity="1" fill-rule="evenodd"/><path fill="#162651" d="M 24.03125 25.84375 C 24.566406 25.898438 24.9375 26.25 24.855469 26.578125 C 24.257812 26.546875 23.921875 26.289062 23.855469 25.84375 C 23.921875 25.398438 24.257812 25.144531 24.855469 25.109375 C 24.9375 25.4375 24.566406 25.789062 24.03125 25.84375 " fill-opacity="1" fill-rule="evenodd"/><path fill="#162651" d="M 25.820312 26.578125 C 25.222656 26.546875 24.882812 26.289062 24.816406 25.84375 C 24.882812 25.398438 25.222656 25.144531 25.820312 25.109375 C 25.902344 25.4375 25.53125 25.789062 24.992188 25.84375 C 25.53125 25.898438 25.902344 26.25 25.820312 26.578125 " fill-opacity="1" fill-rule="evenodd"/><path fill="#162651" d="M 26.78125 26.578125 C 26.1875 26.546875 25.847656 26.289062 25.78125 25.84375 C 25.847656 25.398438 26.1875 25.144531 26.78125 25.109375 C 26.863281 25.4375 26.492188 25.789062 25.957031 25.84375 C 26.492188 25.898438 26.863281 26.25 26.78125 26.578125 " fill-opacity="1" fill-rule="evenodd"/><path fill="#162651" d="M 27.746094 26.578125 C 27.148438 26.546875 26.8125 26.289062 26.746094 25.84375 C 26.8125 25.398438 27.148438 25.144531 27.746094 25.109375 C 27.828125 25.4375 27.457031 25.789062 26.921875 25.84375 C 27.457031 25.898438 27.828125 26.25 27.746094 26.578125 " fill-opacity="1" fill-rule="evenodd"/><path fill="#162651" d="M 28.710938 26.578125 C 28.113281 26.546875 27.773438 26.289062 27.707031 25.84375 C 27.773438 25.398438 28.113281 25.144531 28.710938 25.109375 C 28.792969 25.4375 28.421875 25.789062 27.882812 25.84375 C 28.421875 25.898438 28.792969 26.25 28.710938 26.578125 " fill-opacity="1" fill-rule="evenodd"/><path fill="#162651" d="M 29.671875 26.578125 C 29.078125 26.546875 28.738281 26.289062 28.671875 25.84375 C 28.738281 25.398438 29.078125 25.144531 29.671875 25.109375 C 29.753906 25.4375 29.382812 25.789062 28.847656 25.84375 C 29.382812 25.898438 29.753906 26.25 29.671875 26.578125 " fill-opacity="1" fill-rule="evenodd"/><path fill="#162651" d="M 30.636719 26.578125 C 30.039062 26.546875 29.703125 26.289062 29.636719 25.84375 C 29.703125 25.398438 30.039062 25.144531 30.636719 25.109375 C 30.71875 25.4375 30.347656 25.789062 29.8125 25.84375 C 30.347656 25.898438 30.71875 26.25 30.636719 26.578125 " fill-opacity="1" fill-rule="evenodd"/><path fill="#162651" d="M 31.601562 26.578125 C 31.003906 26.546875 30.664062 26.289062 30.597656 25.84375 C 30.664062 25.398438 31.003906 25.144531 31.601562 25.109375 C 31.683594 25.4375 31.3125 25.789062 30.773438 25.84375 C 31.3125 25.898438 31.683594 26.25 31.601562 26.578125 " fill-opacity="1" fill-rule="evenodd"/><path fill="#162651" d="M 31.738281 25.84375 C 32.273438 25.898438 32.644531 26.25 32.5625 26.578125 C 31.96875 26.546875 31.628906 26.289062 31.5625 25.84375 C 31.628906 25.398438 31.96875 25.144531 32.5625 25.109375 C 32.644531 25.4375 32.273438 25.789062 31.738281 25.84375 " fill-opacity="1" fill-rule="evenodd"/><path fill="#162651" d="M 33.578125 26.046875 C 33.511719 25.726562 33.054688 25.574219 32.566406 25.730469 L 32.359375 25.832031 C 32.617188 26.199219 33.03125 26.277344 33.578125 26.046875 " fill-opacity="1" fill-rule="evenodd"/><path fill="#162651" d="M 24.472656 24.691406 C 23.738281 25.363281 23.464844 25.273438 22.914062 25.761719 L 21.710938 25.761719 C 21.660156 25.824219 21.660156 25.890625 21.710938 25.957031 L 22.90625 25.957031 C 23.269531 26.25 23.789062 26.578125 24.503906 26.792969 C 23.964844 26.464844 23.628906 26.136719 23.1875 25.84375 C 23.757812 25.457031 24.183594 25.070312 24.472656 24.691406 " fill-opacity="1" fill-rule="evenodd"/><path fill="#fafaff" d="M 14.003906 12.78125 L 12.480469 11.683594 L 10.960938 12.78125 L 11.53125 10.992188 L 10.019531 9.886719 L 11.894531 9.875 L 12.480469 8.097656 L 13.070312 9.875 L 14.945312 9.886719 L 13.433594 10.992188 L 14.003906 12.78125 " fill-opacity="1" fill-rule="evenodd"/><path fill="#162651" d="M 19.636719 27.226562 L 18.773438 26.605469 L 17.910156 27.226562 L 18.234375 26.214844 L 17.378906 25.585938 L 18.441406 25.582031 L 18.773438 24.570312 L 19.105469 25.582031 L 20.171875 25.585938 L 19.3125 26.214844 L 19.636719 27.226562 " fill-opacity="1" fill-rule="evenodd"/><path fill="#162651" d="M 2.289062 22.515625 L 35.210938 22.515625 C 35.121094 22.910156 35.019531 23.300781 34.902344 23.683594 L 2.597656 23.683594 C 2.480469 23.300781 2.378906 22.910156 2.289062 22.515625 " fill-opacity="1" fill-rule="nonzero"/></svg>