<svg xmlns="http://www.w3.org/2000/svg" xmlns:xlink="http://www.w3.org/1999/xlink" width="700" zoomAndPan="magnify" viewBox="0 0 525 127.500001" height="170" preserveAspectRatio="xMidYMid meet" version="1.0"><defs><g/><clipPath id="4747982a85"><path d="M 32.167969 18.046875 L 123.308594 18.046875 L 123.308594 109.1875 L 32.167969 109.1875 Z M 32.167969 18.046875 " clip-rule="nonzero"/></clipPath></defs><g fill="#2f3b69" fill-opacity="1"><g transform="translate(137.869932, 76.447449)"><g><path d="M 31.796875 -32.402344 L 0.695312 -32.402344 L 0.695312 -20.347656 L 7.507812 -20.347656 L 7.507812 -26.28125 L 11.496094 -26.28125 L 11.496094 -6.164062 L 7.695312 -6.164062 L 7.695312 0 L 24.9375 0 L 24.9375 -6.164062 L 21.089844 -6.164062 L 21.089844 -26.28125 L 24.984375 -26.28125 L 24.984375 -20.347656 L 31.796875 -20.347656 Z M 31.796875 -32.402344 "/></g></g></g><g fill="#2f3b69" fill-opacity="1"><g transform="translate(174.298755, 76.447449)"><g><path d="M 1.160156 -32.402344 L 1.160156 -26.28125 L 4.078125 -26.28125 L 4.078125 -6.164062 L 1.160156 -6.164062 L 1.160156 0 L 16.546875 0 L 16.546875 -6.164062 L 13.675781 -6.164062 L 13.675781 -26.28125 L 16.546875 -26.28125 L 16.546875 -32.402344 Z M 1.160156 -32.402344 "/></g></g></g><g fill="#2f3b69" fill-opacity="1"><g transform="translate(195.943326, 76.447449)"><g><path d="M 25.679688 -11.726562 C 25.261719 -11.265625 22.203125 -7.183594 18.308594 -7.183594 C 13.90625 -7.183594 11.542969 -11.308594 11.542969 -15.898438 C 11.542969 -20.953125 13.722656 -25.078125 17.058594 -25.078125 C 20.347656 -25.078125 21.832031 -22.25 21.972656 -19.238281 L 30.269531 -19.238281 L 30.269531 -32.402344 L 22.992188 -32.402344 L 21.925781 -29.804688 C 21.507812 -30.363281 19.421875 -32.957031 14.785156 -32.957031 C 8.714844 -32.957031 0.695312 -26.5625 0.695312 -15.898438 C 0.695312 -5.5625 7.230469 0.742188 17.058594 0.742188 C 23.128906 0.742188 27.953125 -2.316406 31.101562 -5.792969 Z M 25.679688 -11.726562 "/></g></g></g><g fill="#2f3b69" fill-opacity="1"><g transform="translate(231.676957, 76.447449)"><g><path d="M 15.761719 -26.421875 L 15.761719 -32.402344 L 1.160156 -32.402344 L 1.160156 -26.421875 L 3.660156 -26.421875 L 3.660156 -6.027344 L 1.160156 -6.027344 L 1.160156 0 L 15.761719 0 L 15.761719 -6.027344 L 13.257812 -6.027344 L 13.257812 -10.984375 L 16.6875 -13.90625 L 21.695312 -6.027344 L 18.542969 -6.027344 L 18.542969 0 L 36.621094 0 L 36.621094 -6.027344 L 33.929688 -6.027344 L 24.566406 -20.628906 L 31.289062 -26.421875 L 33.976562 -26.421875 L 33.976562 -32.402344 L 18.542969 -32.402344 L 18.542969 -26.421875 L 21.878906 -26.421875 L 13.257812 -18.867188 L 13.257812 -26.421875 Z M 15.761719 -26.421875 "/></g></g></g><g fill="#2f3b69" fill-opacity="1"><g transform="translate(273.389172, 76.447449)"><g><path d="M 1.160156 -32.402344 L 1.160156 -26.28125 L 4.078125 -26.28125 L 4.078125 -6.164062 L 1.160156 -6.164062 L 1.160156 0 L 29.109375 0 L 29.109375 -10.476562 L 21.089844 -10.476562 L 21.089844 -6.164062 L 13.675781 -6.164062 L 13.675781 -13.722656 L 22.480469 -13.722656 L 22.480469 -19.886719 L 13.675781 -19.886719 L 13.675781 -26.28125 L 21.089844 -26.28125 L 21.089844 -22.15625 L 29.109375 -22.15625 L 29.109375 -32.402344 Z M 1.160156 -32.402344 "/></g></g></g><g fill="#2f3b69" fill-opacity="1"><g transform="translate(307.5934, 76.447449)"><g><path d="M 31.796875 -32.402344 L 0.695312 -32.402344 L 0.695312 -20.347656 L 7.507812 -20.347656 L 7.507812 -26.28125 L 11.496094 -26.28125 L 11.496094 -6.164062 L 7.695312 -6.164062 L 7.695312 0 L 24.9375 0 L 24.9375 -6.164062 L 21.089844 -6.164062 L 21.089844 -26.28125 L 24.984375 -26.28125 L 24.984375 -20.347656 L 31.796875 -20.347656 Z M 31.796875 -32.402344 "/></g></g></g><g fill="#2f3b69" fill-opacity="1"><g transform="translate(344.022211, 76.447449)"><g><path d="M 1.160156 -32.402344 L 1.160156 -26.28125 L 3.707031 -26.28125 L 3.707031 -6.117188 L 1.160156 -6.117188 L 1.160156 0 L 16.175781 0 L 16.175781 -6.117188 L 13.304688 -6.117188 L 13.304688 -13.117188 L 22.109375 -13.117188 L 22.109375 -6.117188 L 19.375 -6.117188 L 19.375 0 L 34.441406 0 L 34.441406 -6.117188 L 31.753906 -6.117188 L 31.753906 -26.28125 L 34.441406 -26.28125 L 34.441406 -32.402344 L 19.375 -32.402344 L 19.375 -26.28125 L 22.109375 -26.28125 L 22.109375 -19.28125 L 13.304688 -19.28125 L 13.304688 -26.28125 L 16.175781 -26.28125 L 16.175781 -32.402344 Z M 1.160156 -32.402344 "/></g></g></g><g fill="#2f3b69" fill-opacity="1"><g transform="translate(383.556187, 76.447449)"><g><path d="M 37.453125 0 L 37.453125 -6.074219 L 34.210938 -6.074219 L 26.003906 -32.402344 L 8.203125 -32.402344 L 8.203125 -26.421875 L 10.105469 -26.421875 L 3.847656 -6.074219 L 0.695312 -6.074219 L 0.695312 0 L 15.4375 0 L 15.4375 -6.074219 L 11.820312 -6.074219 L 12.792969 -9.222656 L 22.296875 -9.222656 L 23.269531 -6.074219 L 18.867188 -6.074219 L 18.867188 0 Z M 14.507812 -14.785156 L 17.523438 -24.800781 L 20.582031 -14.785156 Z M 14.507812 -14.785156 "/></g></g></g><g fill="#2f3b69" fill-opacity="1"><g transform="translate(425.639158, 76.447449)"><g><path d="M 25.679688 -11.726562 C 25.261719 -11.265625 22.203125 -7.183594 18.308594 -7.183594 C 13.90625 -7.183594 11.542969 -11.308594 11.542969 -15.898438 C 11.542969 -20.953125 13.722656 -25.078125 17.058594 -25.078125 C 20.347656 -25.078125 21.832031 -22.25 21.972656 -19.238281 L 30.269531 -19.238281 L 30.269531 -32.402344 L 22.992188 -32.402344 L 21.925781 -29.804688 C 21.507812 -30.363281 19.421875 -32.957031 14.785156 -32.957031 C 8.714844 -32.957031 0.695312 -26.5625 0.695312 -15.898438 C 0.695312 -5.5625 7.230469 0.742188 17.058594 0.742188 C 23.128906 0.742188 27.953125 -2.316406 31.101562 -5.792969 Z M 25.679688 -11.726562 "/></g></g></g><g fill="#2f3b69" fill-opacity="1"><g transform="translate(461.37279, 76.447449)"><g><path d="M 15.761719 -26.421875 L 15.761719 -32.402344 L 1.160156 -32.402344 L 1.160156 -26.421875 L 3.660156 -26.421875 L 3.660156 -6.027344 L 1.160156 -6.027344 L 1.160156 0 L 15.761719 0 L 15.761719 -6.027344 L 13.257812 -6.027344 L 13.257812 -10.984375 L 16.6875 -13.90625 L 21.695312 -6.027344 L 18.542969 -6.027344 L 18.542969 0 L 36.621094 0 L 36.621094 -6.027344 L 33.929688 -6.027344 L 24.566406 -20.628906 L 31.289062 -26.421875 L 33.976562 -26.421875 L 33.976562 -32.402344 L 18.542969 -32.402344 L 18.542969 -26.421875 L 21.878906 -26.421875 L 13.257812 -18.867188 L 13.257812 -26.421875 Z M 15.761719 -26.421875 "/></g></g></g><g clip-path="url(#4747982a85)"><path fill="#162651" d="M 77.738281 18.046875 C 102.90625 18.046875 123.308594 38.449219 123.308594 63.617188 C 123.308594 88.785156 102.90625 109.1875 77.738281 109.1875 C 52.570312 109.1875 32.167969 88.785156 32.167969 63.617188 C 32.167969 38.449219 52.570312 18.046875 77.738281 18.046875 " fill-opacity="1" fill-rule="nonzero"/></g><path fill="#fafaff" d="M 90.492188 43.027344 L 90.492188 42.851562 L 90.582031 42.683594 C 91.203125 41.539062 92.277344 41.867188 92.960938 42.480469 L 93.246094 42.734375 L 93.164062 43.574219 C 95.339844 44.5625 96.597656 46.058594 96.589844 48.074219 L 100.199219 48.914062 L 105.546875 54.765625 L 105.558594 56.570312 L 116.277344 63.492188 L 116.300781 73.523438 L 41.128906 73.523438 L 46.257812 63.636719 L 44.589844 63.636719 L 44.589844 58.125 L 49.117188 58.125 L 52.210938 52.160156 L 54.203125 52.160156 L 54.203125 50.851562 L 56.753906 50.851562 C 55.269531 49.839844 54.300781 47.4375 54.300781 44.8125 C 54.300781 39.023438 59.007812 34.332031 64.8125 34.332031 C 65.613281 34.332031 66.398438 34.421875 67.152344 34.59375 C 68.410156 34.878906 69.582031 35.386719 70.621094 36.078125 L 71.71875 36.550781 L 71.855469 31.027344 C 71.867188 30.179688 72.660156 29.804688 73.097656 29.65625 C 73.640625 29.472656 74.316406 29.402344 74.957031 29.421875 C 75.597656 29.445312 76.28125 29.554688 76.835938 29.800781 C 77.351562 30.027344 78.011719 30.5 78.011719 31.339844 L 78.011719 40.886719 L 78.625 41.265625 L 78.625 38.933594 L 78.683594 38.792969 C 79.136719 37.710938 80.078125 37.054688 81.09375 36.796875 L 81.09375 35.671875 C 81.84375 35.347656 82.578125 35.347656 83.296875 35.671875 L 83.296875 36.859375 C 84.59375 37.261719 85.714844 38.335938 85.949219 40.097656 L 85.957031 40.148438 L 85.957031 46.445312 L 86.195312 46.59375 L 86.28125 45.550781 L 86.289062 45.5 C 86.683594 43.652344 88.339844 42.988281 90.492188 43.027344 " fill-opacity="1" fill-rule="nonzero"/><path fill="#67aac3" d="M 36.703125 63.617188 C 36.703125 40.953125 55.074219 22.582031 77.738281 22.582031 C 100.398438 22.582031 118.773438 40.953125 118.773438 63.617188 C 118.773438 86.28125 100.398438 104.652344 77.738281 104.652344 C 55.074219 104.652344 36.703125 86.28125 36.703125 63.617188 " fill-opacity="1" fill-rule="nonzero"/><path fill="#162651" d="M 116.285156 64.402344 L 116.296875 72.769531 L 42.371094 72.769531 L 52.671875 52.917969 L 54.957031 52.917969 L 54.957031 51.609375 L 57.183594 51.609375 L 66.984375 35.332031 L 72.445312 37.691406 L 72.613281 31.042969 C 72.613281 29.839844 77.253906 29.839844 77.253906 31.339844 L 77.253906 41.308594 L 79.378906 42.617188 L 79.378906 39.085938 C 79.804688 38.078125 80.800781 37.515625 81.851562 37.441406 L 81.851562 36.429688 C 82.078125 36.246094 82.308594 36.246094 82.539062 36.429688 L 82.539062 37.464844 C 83.796875 37.632812 84.976562 38.519531 85.199219 40.199219 L 85.199219 46.867188 L 86.851562 47.886719 L 87.03125 45.660156 C 87.339844 44.210938 88.746094 43.601562 91.246094 43.828125 L 91.246094 43.042969 C 91.511719 42.554688 91.914062 42.554688 92.457031 43.042969 L 92.359375 44.054688 C 94.929688 45.0625 96.074219 46.597656 95.792969 48.667969 L 99.800781 49.597656 L 104.792969 55.058594 L 104.808594 56.980469 L 116.285156 64.402344 " fill-opacity="1" fill-rule="nonzero"/><path fill="#162651" d="M 55.058594 44.8125 C 55.058594 39.441406 59.421875 35.089844 64.8125 35.089844 C 70.199219 35.089844 74.566406 39.441406 74.566406 44.8125 C 74.566406 50.183594 70.199219 54.535156 64.8125 54.535156 C 59.421875 54.535156 55.058594 50.183594 55.058594 44.8125 " fill-opacity="1" fill-rule="nonzero"/><path fill="#fafaff" d="M 72.015625 44.484375 C 72.015625 40.1875 68.53125 36.703125 64.234375 36.703125 C 63.84375 36.703125 63.457031 36.734375 63.078125 36.789062 C 66.828125 37.347656 69.703125 40.582031 69.703125 44.484375 C 69.703125 48.386719 66.828125 51.621094 63.078125 52.179688 C 63.457031 52.234375 63.84375 52.265625 64.234375 52.265625 C 68.53125 52.265625 72.015625 48.78125 72.015625 44.484375 " fill-opacity="1" fill-rule="nonzero"/><path fill="#fafaff" d="M 95.539062 55.414062 L 74.027344 41.617188 C 75.261719 45.566406 74.585938 48.714844 72.132812 50.554688 L 94.660156 59.820312 C 96.027344 58.917969 96.394531 56.339844 95.539062 55.414062 " fill-opacity="1" fill-rule="evenodd"/><path fill="#fafaff" d="M 76.363281 32.105469 C 75.734375 31.453125 74.765625 31.117188 74.5 32.152344 L 74.589844 39.453125 L 76.304688 40.640625 L 76.363281 32.105469 " fill-opacity="1" fill-rule="evenodd"/><path fill="#fafaff" d="M 83.875 45.792969 L 81.644531 44.394531 L 81.523438 40.304688 C 82.097656 39.21875 83.226562 39.0625 83.75 40.828125 L 83.875 45.792969 " fill-opacity="1" fill-rule="evenodd"/><path fill="#fafaff" d="M 94.433594 52.523438 L 91.511719 50.691406 L 91.636719 45.648438 C 92.707031 44.996094 94.261719 46.183594 94.441406 47.410156 L 94.433594 52.523438 " fill-opacity="1" fill-rule="evenodd"/><path fill="#fafaff" d="M 50.089844 62.941406 L 45.949219 70.796875 L 61.347656 70.796875 L 64.84375 63.042969 L 50.089844 62.941406 " fill-opacity="1" fill-rule="evenodd"/><path fill="#162651" d="M 52.785156 62.191406 L 47.980469 71.054688 L 50.007812 71.054688 L 54.589844 62.039062 L 52.785156 62.191406 " fill-opacity="1" fill-rule="evenodd"/><path fill="#162651" d="M 57.269531 62.332031 L 52.46875 71.191406 L 54.492188 71.191406 L 59.078125 62.179688 L 57.269531 62.332031 " fill-opacity="1" fill-rule="evenodd"/><path fill="#162651" d="M 61.179688 62.3125 L 56.378906 71.171875 L 58.402344 71.171875 L 62.984375 62.15625 L 61.179688 62.3125 " fill-opacity="1" fill-rule="evenodd"/><path fill="#fafaff" d="M 71.519531 63.652344 C 71.597656 63.640625 71.675781 63.632812 71.757812 63.632812 C 73.097656 63.632812 74.183594 65.574219 74.183594 67.972656 C 74.183594 70.367188 73.097656 72.308594 71.757812 72.308594 C 71.496094 72.308594 71.242188 72.234375 71.003906 72.097656 C 72.230469 71.882812 73.191406 70.03125 73.191406 67.777344 C 73.191406 65.851562 72.488281 64.222656 71.519531 63.652344 " fill-opacity="1" fill-rule="nonzero"/><path fill="#fafaff" d="M 83.617188 67.394531 C 83.640625 67.636719 83.652344 67.882812 83.652344 68.136719 C 83.652344 70.648438 82.511719 72.683594 81.105469 72.683594 C 80.804688 72.683594 80.511719 72.589844 80.242188 72.414062 C 81.597656 72.414062 82.703125 70.542969 82.789062 68.175781 C 83.121094 67.929688 83.394531 67.671875 83.617188 67.394531 " fill-opacity="1" fill-rule="nonzero"/><path fill="#fafaff" d="M 87.769531 60.414062 C 87.941406 60.359375 88.121094 60.328125 88.300781 60.328125 C 90.027344 60.328125 91.425781 63.054688 91.425781 66.417969 C 91.425781 69.78125 90.027344 72.503906 88.300781 72.503906 C 88.121094 72.503906 87.941406 72.476562 87.769531 72.417969 C 89.242188 71.925781 90.363281 69.425781 90.363281 66.417969 C 90.363281 63.40625 89.242188 60.90625 87.769531 60.414062 " fill-opacity="1" fill-rule="nonzero"/><path fill="#fafaff" d="M 95.503906 63.691406 L 95.570312 63.691406 C 96.8125 63.691406 97.820312 65.65625 97.820312 68.078125 C 97.820312 70.5 96.8125 72.460938 95.570312 72.460938 C 95.316406 72.460938 95.074219 72.382812 94.847656 72.230469 C 96.058594 72.164062 97.03125 70.226562 97.03125 67.847656 C 97.03125 65.917969 96.394531 64.277344 95.503906 63.691406 " fill-opacity="1" fill-rule="nonzero"/><path fill="#fafaff" d="M 98.648438 50.65625 L 98.53125 53.996094 L 96.054688 53.882812 L 96.054688 50.484375 L 98.648438 50.65625 " fill-opacity="1" fill-rule="evenodd"/><path fill="#fafaff" d="M 74.972656 53.917969 L 70.25 61.832031 L 68.285156 61.75 L 72.761719 54.019531 L 74.65625 53.792969 L 74.972656 53.917969 " fill-opacity="1" fill-rule="evenodd"/><path fill="#fafaff" d="M 74.65625 53.792969 L 102.601562 64.992188 L 102.546875 65.589844 L 74.378906 54.609375 L 74.65625 53.792969 " fill-opacity="1" fill-rule="evenodd"/><path fill="#fafaff" d="M 76.707031 56.703125 C 76.769531 56.699219 76.832031 56.695312 76.894531 56.695312 C 78.335938 56.695312 79.507812 58.085938 79.507812 59.804688 C 79.507812 61.519531 78.335938 62.910156 76.894531 62.910156 C 76.632812 62.910156 76.382812 62.863281 76.144531 62.78125 C 77.5 62.667969 78.570312 61.324219 78.570312 59.679688 C 78.570312 58.273438 77.785156 57.085938 76.707031 56.703125 " fill-opacity="1" fill-rule="nonzero"/><path fill="#fafaff" d="M 77.742188 56.863281 L 85.71875 60.3125 C 86.203125 60.71875 86.394531 61.191406 86.289062 61.722656 L 79.203125 58.933594 L 77.742188 56.863281 " fill-opacity="1" fill-rule="evenodd"/><path fill="#fafaff" d="M 103.875 59.9375 L 103.875 55.503906 L 100.257812 51.726562 L 100.257812 52.511719 L 103.273438 55.753906 L 103.222656 59.921875 L 103.875 59.9375 " fill-opacity="1" fill-rule="evenodd"/><path fill="#fafaff" d="M 104.167969 68.085938 C 104.210938 68.082031 104.25 68.078125 104.292969 68.078125 C 104.976562 68.078125 105.53125 69.070312 105.53125 70.292969 C 105.53125 71.519531 104.976562 72.511719 104.292969 72.511719 C 104.15625 72.511719 104.027344 72.472656 103.90625 72.402344 C 104.535156 72.292969 105.023438 71.347656 105.023438 70.195312 C 105.023438 69.210938 104.664062 68.378906 104.167969 68.085938 " fill-opacity="1" fill-rule="nonzero"/><path fill="#fafaff" d="M 110.730469 69.332031 C 110.761719 69.324219 110.792969 69.324219 110.828125 69.324219 C 111.359375 69.324219 111.789062 70.09375 111.789062 71.046875 C 111.789062 71.996094 111.359375 72.769531 110.828125 72.769531 C 110.722656 72.769531 110.621094 72.738281 110.527344 72.683594 C 111.015625 72.597656 111.394531 71.863281 111.394531 70.96875 C 111.394531 70.203125 111.117188 69.554688 110.730469 69.332031 " fill-opacity="1" fill-rule="nonzero"/><path fill="#162651" d="M 66.195312 58.882812 L 45.347656 58.882812 L 45.347656 62.882812 L 66.195312 62.882812 L 66.195312 58.882812 " fill-opacity="1" fill-rule="evenodd"/><path fill="#162651" d="M 65.519531 80.859375 C 64.21875 80.996094 63.316406 81.847656 63.515625 82.644531 C 64.964844 82.566406 65.789062 81.941406 65.949219 80.859375 C 65.789062 79.777344 64.964844 79.15625 63.515625 79.074219 C 63.316406 79.875 64.21875 80.726562 65.519531 80.859375 " fill-opacity="1" fill-rule="evenodd"/><path fill="#162651" d="M 61.171875 82.644531 C 62.621094 82.566406 63.445312 81.941406 63.605469 80.859375 C 63.445312 79.777344 62.621094 79.15625 61.171875 79.074219 C 60.972656 79.875 61.875 80.726562 63.179688 80.859375 C 61.875 80.996094 60.972656 81.847656 61.171875 82.644531 " fill-opacity="1" fill-rule="evenodd"/><path fill="#162651" d="M 58.832031 82.644531 C 60.277344 82.566406 61.105469 81.941406 61.265625 80.859375 C 61.105469 79.777344 60.277344 79.15625 58.832031 79.074219 C 58.628906 79.875 59.535156 80.726562 60.835938 80.859375 C 59.535156 80.996094 58.628906 81.847656 58.832031 82.644531 " fill-opacity="1" fill-rule="evenodd"/><path fill="#162651" d="M 56.488281 82.644531 C 57.9375 82.566406 58.761719 81.941406 58.921875 80.859375 C 58.761719 79.777344 57.9375 79.15625 56.488281 79.074219 C 56.289062 79.875 57.191406 80.726562 58.496094 80.859375 C 57.191406 80.996094 56.289062 81.847656 56.488281 82.644531 " fill-opacity="1" fill-rule="evenodd"/><path fill="#162651" d="M 54.148438 82.644531 C 55.59375 82.566406 56.417969 81.941406 56.582031 80.859375 C 56.417969 79.777344 55.59375 79.15625 54.148438 79.074219 C 53.945312 79.875 54.851562 80.726562 56.152344 80.859375 C 54.851562 80.996094 53.945312 81.847656 54.148438 82.644531 " fill-opacity="1" fill-rule="evenodd"/><path fill="#162651" d="M 51.804688 82.644531 C 53.253906 82.566406 54.078125 81.941406 54.238281 80.859375 C 54.078125 79.777344 53.253906 79.15625 51.804688 79.074219 C 51.605469 79.875 52.507812 80.726562 53.8125 80.859375 C 52.507812 80.996094 51.605469 81.847656 51.804688 82.644531 " fill-opacity="1" fill-rule="evenodd"/><path fill="#162651" d="M 49.460938 82.644531 C 50.910156 82.566406 51.734375 81.941406 51.898438 80.859375 C 51.734375 79.777344 50.910156 79.15625 49.460938 79.074219 C 49.261719 79.875 50.167969 80.726562 51.46875 80.859375 C 50.167969 80.996094 49.261719 81.847656 49.460938 82.644531 " fill-opacity="1" fill-rule="evenodd"/><path fill="#162651" d="M 47.121094 82.644531 C 48.570312 82.566406 49.394531 81.941406 49.554688 80.859375 C 49.394531 79.777344 48.570312 79.15625 47.121094 79.074219 C 46.921875 79.875 47.824219 80.726562 49.128906 80.859375 C 47.824219 80.996094 46.921875 81.847656 47.121094 82.644531 " fill-opacity="1" fill-rule="evenodd"/><path fill="#162651" d="M 46.785156 80.859375 C 45.484375 80.996094 44.578125 81.847656 44.78125 82.644531 C 46.226562 82.566406 47.050781 81.941406 47.214844 80.859375 C 47.050781 79.777344 46.226562 79.15625 44.78125 79.074219 C 44.578125 79.875 45.484375 80.726562 46.785156 80.859375 " fill-opacity="1" fill-rule="evenodd"/><path fill="#162651" d="M 42.3125 81.351562 C 42.480469 80.574219 43.589844 80.203125 44.773438 80.582031 L 45.273438 80.828125 C 44.652344 81.71875 43.644531 81.910156 42.3125 81.351562 " fill-opacity="1" fill-rule="evenodd"/><path fill="#162651" d="M 64.445312 78.058594 C 66.230469 79.6875 66.894531 79.46875 68.230469 80.660156 L 71.15625 80.660156 C 71.277344 80.8125 71.277344 80.972656 71.15625 81.136719 L 68.253906 81.136719 C 67.371094 81.84375 66.105469 82.648438 64.367188 83.167969 C 65.675781 82.371094 66.496094 81.570312 67.570312 80.855469 C 66.183594 79.914062 65.144531 78.984375 64.445312 78.058594 " fill-opacity="1" fill-rule="evenodd"/><path fill="#162651" d="M 90.570312 80.859375 C 91.871094 80.996094 92.777344 81.847656 92.578125 82.644531 C 91.128906 82.566406 90.304688 81.941406 90.140625 80.859375 C 90.304688 79.777344 91.128906 79.15625 92.578125 79.074219 C 92.777344 79.875 91.871094 80.726562 90.570312 80.859375 " fill-opacity="1" fill-rule="evenodd"/><path fill="#162651" d="M 94.917969 82.644531 C 93.46875 82.566406 92.644531 81.941406 92.484375 80.859375 C 92.644531 79.777344 93.46875 79.15625 94.917969 79.074219 C 95.117188 79.875 94.214844 80.726562 92.910156 80.859375 C 94.214844 80.996094 95.117188 81.847656 94.917969 82.644531 " fill-opacity="1" fill-rule="evenodd"/><path fill="#162651" d="M 97.261719 82.644531 C 95.8125 82.566406 94.988281 81.941406 94.824219 80.859375 C 94.988281 79.777344 95.8125 79.15625 97.261719 79.074219 C 97.460938 79.875 96.554688 80.726562 95.253906 80.859375 C 96.554688 80.996094 97.460938 81.847656 97.261719 82.644531 " fill-opacity="1" fill-rule="evenodd"/><path fill="#162651" d="M 99.601562 82.644531 C 98.152344 82.566406 97.328125 81.941406 97.167969 80.859375 C 97.328125 79.777344 98.152344 79.15625 99.601562 79.074219 C 99.800781 79.875 98.898438 80.726562 97.597656 80.859375 C 98.898438 80.996094 99.800781 81.847656 99.601562 82.644531 " fill-opacity="1" fill-rule="evenodd"/><path fill="#162651" d="M 101.945312 82.644531 C 100.496094 82.566406 99.671875 81.941406 99.507812 80.859375 C 99.671875 79.777344 100.496094 79.15625 101.945312 79.074219 C 102.144531 79.875 101.242188 80.726562 99.9375 80.859375 C 101.242188 80.996094 102.144531 81.847656 101.945312 82.644531 " fill-opacity="1" fill-rule="evenodd"/><path fill="#162651" d="M 104.285156 82.644531 C 102.835938 82.566406 102.011719 81.941406 101.851562 80.859375 C 102.011719 79.777344 102.835938 79.15625 104.285156 79.074219 C 104.484375 79.875 103.582031 80.726562 102.277344 80.859375 C 103.582031 80.996094 104.484375 81.847656 104.285156 82.644531 " fill-opacity="1" fill-rule="evenodd"/><path fill="#162651" d="M 106.628906 82.644531 C 105.179688 82.566406 104.355469 81.941406 104.195312 80.859375 C 104.355469 79.777344 105.179688 79.15625 106.628906 79.074219 C 106.828125 79.875 105.925781 80.726562 104.621094 80.859375 C 105.925781 80.996094 106.828125 81.847656 106.628906 82.644531 " fill-opacity="1" fill-rule="evenodd"/><path fill="#162651" d="M 108.96875 82.644531 C 107.519531 82.566406 106.695312 81.941406 106.535156 80.859375 C 106.695312 79.777344 107.519531 79.15625 108.96875 79.074219 C 109.167969 79.875 108.265625 80.726562 106.964844 80.859375 C 108.265625 80.996094 109.167969 81.847656 108.96875 82.644531 " fill-opacity="1" fill-rule="evenodd"/><path fill="#162651" d="M 109.304688 80.859375 C 110.609375 80.996094 111.511719 81.847656 111.3125 82.644531 C 109.863281 82.566406 109.039062 81.941406 108.875 80.859375 C 109.039062 79.777344 109.863281 79.15625 111.3125 79.074219 C 111.511719 79.875 110.609375 80.726562 109.304688 80.859375 " fill-opacity="1" fill-rule="evenodd"/><path fill="#162651" d="M 113.777344 81.351562 C 113.613281 80.574219 112.503906 80.203125 111.320312 80.582031 L 110.816406 80.828125 C 111.4375 81.71875 112.449219 81.910156 113.777344 81.351562 " fill-opacity="1" fill-rule="evenodd"/><path fill="#162651" d="M 91.644531 78.058594 C 89.859375 79.6875 89.199219 79.46875 87.863281 80.660156 L 84.933594 80.660156 C 84.8125 80.8125 84.8125 80.972656 84.933594 81.136719 L 87.839844 81.136719 C 88.71875 81.84375 89.984375 82.648438 91.722656 83.167969 C 90.414062 82.371094 89.59375 81.570312 88.523438 80.855469 C 89.90625 79.914062 90.949219 78.984375 91.644531 78.058594 " fill-opacity="1" fill-rule="evenodd"/><path fill="#fafaff" d="M 66.203125 49.105469 L 62.503906 46.445312 L 58.804688 49.105469 L 60.195312 44.765625 L 56.519531 42.070312 L 61.074219 42.050781 L 62.503906 37.722656 L 63.933594 42.050781 L 68.488281 42.070312 L 64.8125 44.765625 L 66.203125 49.105469 " fill-opacity="1" fill-rule="evenodd"/><path fill="#162651" d="M 79.894531 84.222656 L 77.796875 82.710938 L 75.695312 84.222656 L 76.484375 81.761719 L 74.402344 80.230469 L 76.984375 80.21875 L 77.796875 77.765625 L 78.605469 80.21875 L 81.191406 80.230469 L 79.105469 81.761719 L 79.894531 84.222656 " fill-opacity="1" fill-rule="evenodd"/><path fill="#162651" d="M 37.726562 72.769531 L 117.746094 72.769531 C 117.53125 73.726562 117.277344 74.671875 116.992188 75.605469 L 38.480469 75.605469 C 38.195312 74.671875 37.945312 73.726562 37.726562 72.769531 " fill-opacity="1" fill-rule="nonzero"/></svg>