<svg xmlns="http://www.w3.org/2000/svg" xmlns:xlink="http://www.w3.org/1999/xlink" width="640" zoomAndPan="magnify" viewBox="0 0 480 119.999999" height="160" preserveAspectRatio="xMidYMid meet" version="1.0"><defs><g/><clipPath id="f371089836"><path d="M 22.363281 17.050781 L 108.613281 17.050781 L 108.613281 103.300781 L 22.363281 103.300781 Z M 22.363281 17.050781 " clip-rule="nonzero"/></clipPath></defs><g fill="#2f3b69" fill-opacity="1"><g transform="translate(125.175846, 70.696014)"><g><path d="M 28.203125 -28.738281 L 0.617188 -28.738281 L 0.617188 -18.046875 L 6.660156 -18.046875 L 6.660156 -23.3125 L 10.195312 -23.3125 L 10.195312 -5.46875 L 6.824219 -5.46875 L 6.824219 0 L 22.117188 0 L 22.117188 -5.46875 L 18.707031 -5.46875 L 18.707031 -23.3125 L 22.160156 -23.3125 L 22.160156 -18.046875 L 28.203125 -18.046875 Z M 28.203125 -28.738281 "/></g></g></g><g fill="#2f3b69" fill-opacity="1"><g transform="translate(158.106821, 70.696014)"><g><path d="M 1.027344 -28.738281 L 1.027344 -23.351562 L 3.332031 -23.351562 L 3.332031 -5.425781 L 1.027344 -5.425781 L 1.027344 0 L 14.308594 0 L 14.308594 -5.425781 L 11.800781 -5.425781 L 11.800781 -11.800781 C 15.457031 -11.800781 15.910156 -10.894531 15.910156 -7.152344 C 15.910156 -2.34375 18.5 0.492188 23.886719 0.492188 C 28.449219 0.492188 29.890625 -2.671875 29.890625 -6.085938 L 29.890625 -8.347656 L 27.132812 -8.347656 L 27.132812 -6.988281 C 27.132812 -6.167969 26.804688 -5.671875 26.1875 -5.671875 C 25.449219 -5.671875 25.203125 -6.703125 25.203125 -8.46875 C 25.203125 -11.429688 22.652344 -13.894531 19.816406 -14.308594 C 23.226562 -14.800781 25.777344 -17.0625 25.777344 -20.269531 C 25.777344 -24.957031 23.925781 -28.738281 14.390625 -28.738281 Z M 11.800781 -23.394531 L 13.855469 -23.394531 C 16.238281 -23.394531 17.597656 -22.160156 17.597656 -19.734375 C 17.597656 -17.554688 16.035156 -16.402344 13.648438 -16.402344 L 11.800781 -16.402344 Z M 11.800781 -23.394531 "/></g></g></g><g fill="#2f3b69" fill-opacity="1"><g transform="translate(192.517839, 70.696014)"><g><path d="M 33.21875 0 L 33.21875 -5.386719 L 30.339844 -5.386719 L 23.0625 -28.738281 L 7.277344 -28.738281 L 7.277344 -23.433594 L 8.960938 -23.433594 L 3.414062 -5.386719 L 0.617188 -5.386719 L 0.617188 0 L 13.691406 0 L 13.691406 -5.386719 L 10.484375 -5.386719 L 11.347656 -8.179688 L 19.773438 -8.179688 L 20.636719 -5.386719 L 16.734375 -5.386719 L 16.734375 0 Z M 12.867188 -13.113281 L 15.539062 -21.996094 L 18.253906 -13.113281 Z M 12.867188 -13.113281 "/></g></g></g><g fill="#2f3b69" fill-opacity="1"><g transform="translate(230.464513, 70.696014)"><g><path d="M 17.265625 -9.210938 C 17.183594 -10.359375 16.652344 -12.167969 15.992188 -14.183594 L 12.5 -23.394531 L 14.71875 -23.394531 L 14.71875 -28.738281 L -0.410156 -28.738281 L -0.410156 -23.394531 L 1.851562 -23.394531 L 12.746094 0 L 20.308594 0 L 30.175781 -23.394531 L 32.191406 -23.394531 L 32.191406 -28.738281 L 20.515625 -28.738281 L 20.515625 -23.394531 L 22.695312 -23.394531 L 18.953125 -14.429688 C 18.128906 -12.375 17.554688 -10.359375 17.472656 -9.210938 Z M 17.265625 -9.210938 "/></g></g></g><g fill="#2f3b69" fill-opacity="1"><g transform="translate(266.355568, 70.696014)"><g><path d="M 1.027344 -28.738281 L 1.027344 -23.3125 L 3.617188 -23.3125 L 3.617188 -5.46875 L 1.027344 -5.46875 L 1.027344 0 L 25.820312 0 L 25.820312 -9.292969 L 18.707031 -9.292969 L 18.707031 -5.46875 L 12.128906 -5.46875 L 12.128906 -12.167969 L 19.941406 -12.167969 L 19.941406 -17.636719 L 12.128906 -17.636719 L 12.128906 -23.3125 L 18.707031 -23.3125 L 18.707031 -19.652344 L 25.820312 -19.652344 L 25.820312 -28.738281 Z M 1.027344 -28.738281 "/></g></g></g><g fill="#2f3b69" fill-opacity="1"><g transform="translate(297.313147, 70.696014)"><g><path d="M 1.027344 -28.738281 L 1.027344 -23.3125 L 3.289062 -23.3125 L 3.289062 -5.46875 L 1.027344 -5.46875 L 1.027344 0 L 24.050781 0 L 24.050781 -10.6875 L 17.144531 -10.6875 L 17.144531 -5.46875 L 11.839844 -5.46875 L 11.839844 -23.3125 L 14.019531 -23.3125 L 14.019531 -28.738281 Z M 1.027344 -28.738281 "/></g></g></g><g fill="#2f3b69" fill-opacity="1"><g transform="translate(326.5029, 70.696014)"><g><path d="M 1.027344 -28.738281 L 1.027344 -23.3125 L 3.289062 -23.3125 L 3.289062 -5.425781 L 1.027344 -5.425781 L 1.027344 0 L 14.347656 0 L 14.347656 -5.425781 L 11.800781 -5.425781 L 11.800781 -11.636719 L 19.609375 -11.636719 L 19.609375 -5.425781 L 17.183594 -5.425781 L 17.183594 0 L 30.546875 0 L 30.546875 -5.425781 L 28.160156 -5.425781 L 28.160156 -23.3125 L 30.546875 -23.3125 L 30.546875 -28.738281 L 17.183594 -28.738281 L 17.183594 -23.3125 L 19.609375 -23.3125 L 19.609375 -17.101562 L 11.800781 -17.101562 L 11.800781 -23.3125 L 14.347656 -23.3125 L 14.347656 -28.738281 Z M 1.027344 -28.738281 "/></g></g></g><g fill="#2f3b69" fill-opacity="1"><g transform="translate(362.188402, 70.696014)"><g><path d="M 33.21875 0 L 33.21875 -5.386719 L 30.339844 -5.386719 L 23.0625 -28.738281 L 7.277344 -28.738281 L 7.277344 -23.433594 L 8.960938 -23.433594 L 3.414062 -5.386719 L 0.617188 -5.386719 L 0.617188 0 L 13.691406 0 L 13.691406 -5.386719 L 10.484375 -5.386719 L 11.347656 -8.179688 L 19.773438 -8.179688 L 20.636719 -5.386719 L 16.734375 -5.386719 L 16.734375 0 Z M 12.867188 -13.113281 L 15.539062 -21.996094 L 18.253906 -13.113281 Z M 12.867188 -13.113281 "/></g></g></g><g fill="#2f3b69" fill-opacity="1"><g transform="translate(400.135082, 70.696014)"><g><path d="M 22.777344 -10.402344 C 22.40625 -9.992188 19.691406 -6.371094 16.238281 -6.371094 C 12.332031 -6.371094 10.238281 -10.03125 10.238281 -14.101562 C 10.238281 -18.582031 12.167969 -22.242188 15.128906 -22.242188 C 18.046875 -22.242188 19.363281 -19.734375 19.488281 -17.0625 L 26.847656 -17.0625 L 26.847656 -28.738281 L 20.390625 -28.738281 L 19.445312 -26.433594 C 19.074219 -26.929688 17.226562 -29.230469 13.113281 -29.230469 C 7.730469 -29.230469 0.617188 -23.558594 0.617188 -14.101562 C 0.617188 -4.933594 6.414062 0.65625 15.128906 0.65625 C 20.515625 0.65625 24.789062 -2.054688 27.585938 -5.140625 Z M 22.777344 -10.402344 "/></g></g></g><g fill="#2f3b69" fill-opacity="1"><g transform="translate(432.449382, 70.696014)"><g><path d="M 13.976562 -23.433594 L 13.976562 -28.738281 L 1.027344 -28.738281 L 1.027344 -23.433594 L 3.246094 -23.433594 L 3.246094 -5.34375 L 1.027344 -5.34375 L 1.027344 0 L 13.976562 0 L 13.976562 -5.34375 L 11.757812 -5.34375 L 11.757812 -9.742188 L 14.800781 -12.332031 L 19.242188 -5.34375 L 16.445312 -5.34375 L 16.445312 0 L 32.480469 0 L 32.480469 -5.34375 L 30.09375 -5.34375 L 21.789062 -18.296875 L 27.75 -23.433594 L 30.136719 -23.433594 L 30.136719 -28.738281 L 16.445312 -28.738281 L 16.445312 -23.433594 L 19.40625 -23.433594 L 11.757812 -16.734375 L 11.757812 -23.433594 Z M 13.976562 -23.433594 "/></g></g></g><g clip-path="url(#f371089836)"><path fill="#162651" d="M 65.488281 17.050781 C 89.308594 17.050781 108.613281 36.359375 108.613281 60.175781 C 108.613281 83.992188 89.308594 103.300781 65.488281 103.300781 C 41.671875 103.300781 22.363281 83.992188 22.363281 60.175781 C 22.363281 36.359375 41.671875 17.050781 65.488281 17.050781 " fill-opacity="1" fill-rule="nonzero"/></g><path fill="#fafaff" d="M 77.558594 40.691406 L 77.558594 40.523438 L 77.644531 40.367188 C 78.230469 39.28125 79.246094 39.589844 79.898438 40.171875 L 80.167969 40.414062 L 80.089844 41.210938 C 82.148438 42.144531 83.335938 43.558594 83.332031 45.46875 L 86.746094 46.261719 L 91.804688 51.796875 L 91.820312 53.507812 L 101.960938 60.058594 L 101.980469 69.550781 L 30.847656 69.550781 L 35.699219 60.195312 L 34.121094 60.195312 L 34.121094 54.980469 L 38.40625 54.980469 L 41.332031 49.332031 L 43.21875 49.332031 L 43.21875 48.097656 L 45.632812 48.097656 C 44.230469 47.136719 43.3125 44.863281 43.3125 42.378906 C 43.3125 36.902344 47.765625 32.460938 53.257812 32.460938 C 54.019531 32.460938 54.757812 32.546875 55.472656 32.710938 C 56.664062 32.980469 57.773438 33.460938 58.757812 34.117188 L 59.792969 34.5625 L 59.925781 29.335938 C 59.9375 28.535156 60.683594 28.175781 61.097656 28.039062 C 61.613281 27.863281 62.253906 27.796875 62.859375 27.816406 C 63.464844 27.835938 64.113281 27.945312 64.636719 28.175781 C 65.125 28.390625 65.75 28.835938 65.75 29.628906 L 65.75 38.667969 L 66.328125 39.023438 L 66.328125 36.816406 L 66.386719 36.683594 C 66.816406 35.660156 67.703125 35.039062 68.667969 34.796875 L 68.667969 33.730469 C 69.378906 33.425781 70.070312 33.425781 70.75 33.730469 L 70.75 34.855469 C 71.976562 35.234375 73.039062 36.253906 73.261719 37.921875 L 73.265625 37.96875 L 73.265625 43.925781 L 73.496094 44.066406 L 73.574219 43.078125 L 73.582031 43.03125 C 73.957031 41.28125 75.523438 40.65625 77.558594 40.691406 " fill-opacity="1" fill-rule="nonzero"/><path fill="#67aac3" d="M 26.65625 60.175781 C 26.65625 38.730469 44.042969 21.34375 65.488281 21.34375 C 86.9375 21.34375 104.320312 38.730469 104.320312 60.175781 C 104.320312 81.621094 86.9375 99.007812 65.488281 99.007812 C 44.042969 99.007812 26.65625 81.621094 26.65625 60.175781 " fill-opacity="1" fill-rule="nonzero"/><path fill="#162651" d="M 101.96875 60.917969 L 101.980469 68.835938 L 32.023438 68.835938 L 41.769531 50.050781 L 43.933594 50.050781 L 43.933594 48.8125 L 46.039062 48.8125 L 55.3125 33.40625 L 60.480469 35.640625 L 60.640625 29.351562 C 60.640625 28.214844 65.035156 28.214844 65.035156 29.628906 L 65.035156 39.066406 L 67.042969 40.304688 L 67.042969 36.960938 C 67.445312 36.007812 68.386719 35.472656 69.382812 35.40625 L 69.382812 34.445312 C 69.597656 34.277344 69.816406 34.277344 70.035156 34.445312 L 70.035156 35.425781 C 71.226562 35.585938 72.339844 36.425781 72.550781 38.015625 L 72.550781 44.324219 L 74.113281 45.289062 L 74.285156 43.179688 C 74.578125 41.8125 75.90625 41.234375 78.273438 41.449219 L 78.273438 40.707031 C 78.523438 40.246094 78.90625 40.246094 79.417969 40.707031 L 79.324219 41.664062 C 81.761719 42.617188 82.84375 44.070312 82.574219 46.027344 L 86.367188 46.910156 L 91.09375 52.078125 L 91.105469 53.898438 L 101.96875 60.917969 " fill-opacity="1" fill-rule="nonzero"/><path fill="#162651" d="M 44.027344 42.378906 C 44.027344 37.296875 48.160156 33.179688 53.257812 33.179688 C 58.355469 33.179688 62.488281 37.296875 62.488281 42.378906 C 62.488281 47.460938 58.355469 51.582031 53.257812 51.582031 C 48.160156 51.582031 44.027344 47.460938 44.027344 42.378906 " fill-opacity="1" fill-rule="nonzero"/><path fill="#fafaff" d="M 60.074219 42.070312 C 60.074219 38.003906 56.777344 34.707031 52.714844 34.707031 C 52.339844 34.707031 51.976562 34.734375 51.617188 34.789062 C 55.164062 35.316406 57.886719 38.375 57.886719 42.070312 C 57.886719 45.761719 55.164062 48.820312 51.617188 49.351562 C 51.976562 49.402344 52.339844 49.433594 52.714844 49.433594 C 56.777344 49.433594 60.074219 46.136719 60.074219 42.070312 " fill-opacity="1" fill-rule="nonzero"/><path fill="#fafaff" d="M 82.335938 52.414062 L 61.976562 39.355469 C 63.148438 43.09375 62.507812 46.074219 60.1875 47.816406 L 81.503906 56.585938 C 82.800781 55.730469 83.144531 53.289062 82.335938 52.414062 " fill-opacity="1" fill-rule="evenodd"/><path fill="#fafaff" d="M 64.191406 30.359375 C 63.597656 29.738281 62.679688 29.421875 62.429688 30.398438 L 62.511719 37.308594 L 64.132812 38.433594 L 64.191406 30.359375 " fill-opacity="1" fill-rule="evenodd"/><path fill="#fafaff" d="M 71.296875 43.308594 L 69.1875 41.984375 L 69.070312 38.113281 C 69.617188 37.089844 70.6875 36.941406 71.179688 38.609375 L 71.296875 43.308594 " fill-opacity="1" fill-rule="evenodd"/><path fill="#fafaff" d="M 81.289062 49.679688 L 78.523438 47.945312 L 78.640625 43.171875 C 79.65625 42.554688 81.128906 43.679688 81.296875 44.835938 L 81.289062 49.679688 " fill-opacity="1" fill-rule="evenodd"/><path fill="#fafaff" d="M 39.324219 59.535156 L 35.410156 66.972656 L 49.980469 66.972656 L 53.289062 59.632812 L 39.324219 59.535156 " fill-opacity="1" fill-rule="evenodd"/><path fill="#162651" d="M 41.875 58.828125 L 37.332031 67.210938 L 39.25 67.210938 L 43.585938 58.683594 L 41.875 58.828125 " fill-opacity="1" fill-rule="evenodd"/><path fill="#162651" d="M 46.121094 58.957031 L 41.578125 67.34375 L 43.492188 67.34375 L 47.832031 58.8125 L 46.121094 58.957031 " fill-opacity="1" fill-rule="evenodd"/><path fill="#162651" d="M 49.820312 58.941406 L 45.277344 67.324219 L 47.191406 67.324219 L 51.53125 58.792969 L 49.820312 58.941406 " fill-opacity="1" fill-rule="evenodd"/><path fill="#fafaff" d="M 59.605469 60.210938 C 59.679688 60.199219 59.753906 60.191406 59.832031 60.191406 C 61.097656 60.191406 62.128906 62.027344 62.128906 64.296875 C 62.128906 66.5625 61.097656 68.402344 59.832031 68.402344 C 59.582031 68.402344 59.339844 68.332031 59.117188 68.199219 C 60.28125 67.996094 61.1875 66.246094 61.1875 64.113281 C 61.1875 62.292969 60.523438 60.746094 59.605469 60.210938 " fill-opacity="1" fill-rule="nonzero"/><path fill="#fafaff" d="M 71.054688 63.753906 C 71.078125 63.980469 71.085938 64.214844 71.085938 64.453125 C 71.085938 66.828125 70.007812 68.757812 68.679688 68.757812 C 68.390625 68.757812 68.117188 68.667969 67.859375 68.5 C 69.144531 68.5 70.1875 66.730469 70.273438 64.492188 C 70.582031 64.257812 70.84375 64.011719 71.054688 63.753906 " fill-opacity="1" fill-rule="nonzero"/><path fill="#fafaff" d="M 74.984375 57.144531 C 75.148438 57.09375 75.316406 57.0625 75.484375 57.0625 C 77.117188 57.0625 78.441406 59.644531 78.441406 62.824219 C 78.441406 66.007812 77.117188 68.585938 75.484375 68.585938 C 75.316406 68.585938 75.148438 68.558594 74.984375 68.503906 C 76.378906 68.039062 77.4375 65.675781 77.4375 62.824219 C 77.4375 59.976562 76.378906 57.609375 74.984375 57.144531 " fill-opacity="1" fill-rule="nonzero"/><path fill="#fafaff" d="M 82.304688 60.246094 L 82.363281 60.246094 C 83.539062 60.246094 84.496094 62.105469 84.496094 64.394531 C 84.496094 66.6875 83.539062 68.546875 82.363281 68.546875 C 82.125 68.546875 81.894531 68.46875 81.683594 68.328125 C 82.828125 68.265625 83.75 66.433594 83.75 64.179688 C 83.75 62.351562 83.144531 60.800781 82.304688 60.246094 " fill-opacity="1" fill-rule="nonzero"/><path fill="#fafaff" d="M 85.277344 47.910156 L 85.167969 51.074219 L 82.824219 50.964844 L 82.824219 47.746094 L 85.277344 47.910156 " fill-opacity="1" fill-rule="evenodd"/><path fill="#fafaff" d="M 62.871094 51 L 58.402344 58.488281 L 56.546875 58.410156 L 60.78125 51.09375 L 62.574219 50.878906 L 62.871094 51 " fill-opacity="1" fill-rule="evenodd"/><path fill="#fafaff" d="M 62.574219 50.878906 L 89.019531 61.476562 L 88.964844 62.042969 L 62.308594 51.652344 L 62.574219 50.878906 " fill-opacity="1" fill-rule="evenodd"/><path fill="#fafaff" d="M 64.515625 53.632812 C 64.574219 53.628906 64.632812 53.625 64.691406 53.625 C 66.058594 53.625 67.164062 54.941406 67.164062 56.566406 C 67.164062 58.191406 66.058594 59.507812 64.691406 59.507812 C 64.445312 59.507812 64.207031 59.464844 63.984375 59.382812 C 65.265625 59.277344 66.28125 58.003906 66.28125 56.449219 C 66.28125 55.121094 65.535156 53.996094 64.515625 53.632812 " fill-opacity="1" fill-rule="nonzero"/><path fill="#fafaff" d="M 65.496094 53.785156 L 73.042969 57.050781 C 73.503906 57.433594 73.679688 57.878906 73.582031 58.382812 L 66.875 55.742188 L 65.496094 53.785156 " fill-opacity="1" fill-rule="evenodd"/><path fill="#fafaff" d="M 90.222656 56.691406 L 90.222656 52.5 L 86.800781 48.925781 L 86.800781 49.667969 L 89.65625 52.734375 L 89.609375 56.679688 L 90.222656 56.691406 " fill-opacity="1" fill-rule="evenodd"/><path fill="#fafaff" d="M 90.503906 64.40625 C 90.542969 64.398438 90.578125 64.398438 90.617188 64.398438 C 91.265625 64.398438 91.792969 65.335938 91.792969 66.496094 C 91.792969 67.652344 91.265625 68.59375 90.617188 68.59375 C 90.492188 68.59375 90.367188 68.558594 90.253906 68.488281 C 90.847656 68.386719 91.3125 67.492188 91.3125 66.402344 C 91.3125 65.46875 90.972656 64.679688 90.503906 64.40625 " fill-opacity="1" fill-rule="nonzero"/><path fill="#fafaff" d="M 96.714844 65.582031 C 96.742188 65.578125 96.773438 65.574219 96.804688 65.574219 C 97.304688 65.574219 97.714844 66.304688 97.714844 67.207031 C 97.714844 68.105469 97.304688 68.835938 96.804688 68.835938 C 96.703125 68.835938 96.609375 68.808594 96.519531 68.757812 C 96.980469 68.675781 97.34375 67.980469 97.34375 67.132812 C 97.34375 66.410156 97.078125 65.796875 96.714844 65.582031 " fill-opacity="1" fill-rule="nonzero"/><path fill="#162651" d="M 54.566406 55.695312 L 34.839844 55.695312 L 34.839844 59.480469 L 54.566406 59.480469 L 54.566406 55.695312 " fill-opacity="1" fill-rule="evenodd"/><path fill="#162651" d="M 53.929688 76.492188 C 52.695312 76.621094 51.839844 77.425781 52.03125 78.183594 C 53.402344 78.105469 54.179688 77.519531 54.335938 76.492188 C 54.179688 75.46875 53.402344 74.878906 52.03125 74.804688 C 51.839844 75.5625 52.695312 76.367188 53.929688 76.492188 " fill-opacity="1" fill-rule="evenodd"/><path fill="#162651" d="M 49.8125 78.183594 C 51.183594 78.105469 51.964844 77.519531 52.117188 76.492188 C 51.964844 75.46875 51.183594 74.878906 49.8125 74.804688 C 49.625 75.5625 50.480469 76.367188 51.714844 76.492188 C 50.480469 76.621094 49.625 77.425781 49.8125 78.183594 " fill-opacity="1" fill-rule="evenodd"/><path fill="#162651" d="M 47.597656 78.183594 C 48.96875 78.105469 49.75 77.519531 49.902344 76.492188 C 49.75 75.46875 48.96875 74.878906 47.597656 74.804688 C 47.410156 75.5625 48.265625 76.367188 49.496094 76.492188 C 48.265625 76.621094 47.410156 77.425781 47.597656 78.183594 " fill-opacity="1" fill-rule="evenodd"/><path fill="#162651" d="M 45.382812 78.183594 C 46.753906 78.105469 47.53125 77.519531 47.6875 76.492188 C 47.53125 75.46875 46.753906 74.878906 45.382812 74.804688 C 45.191406 75.5625 46.046875 76.367188 47.28125 76.492188 C 46.046875 76.621094 45.191406 77.425781 45.382812 78.183594 " fill-opacity="1" fill-rule="evenodd"/><path fill="#162651" d="M 43.167969 78.183594 C 44.535156 78.105469 45.316406 77.519531 45.46875 76.492188 C 45.316406 75.46875 44.535156 74.878906 43.167969 74.804688 C 42.976562 75.5625 43.832031 76.367188 45.066406 76.492188 C 43.832031 76.621094 42.976562 77.425781 43.167969 78.183594 " fill-opacity="1" fill-rule="evenodd"/><path fill="#162651" d="M 40.949219 78.183594 C 42.320312 78.105469 43.101562 77.519531 43.253906 76.492188 C 43.101562 75.46875 42.320312 74.878906 40.949219 74.804688 C 40.761719 75.5625 41.617188 76.367188 42.847656 76.492188 C 41.617188 76.621094 40.761719 77.425781 40.949219 78.183594 " fill-opacity="1" fill-rule="evenodd"/><path fill="#162651" d="M 38.734375 78.183594 C 40.105469 78.105469 40.882812 77.519531 41.039062 76.492188 C 40.882812 75.46875 40.105469 74.878906 38.734375 74.804688 C 38.542969 75.5625 39.398438 76.367188 40.632812 76.492188 C 39.398438 76.621094 38.542969 77.425781 38.734375 78.183594 " fill-opacity="1" fill-rule="evenodd"/><path fill="#162651" d="M 36.515625 78.183594 C 37.886719 78.105469 38.667969 77.519531 38.820312 76.492188 C 38.667969 75.46875 37.886719 74.878906 36.515625 74.804688 C 36.328125 75.5625 37.183594 76.367188 38.417969 76.492188 C 37.183594 76.621094 36.328125 77.425781 36.515625 78.183594 " fill-opacity="1" fill-rule="evenodd"/><path fill="#162651" d="M 36.199219 76.492188 C 34.96875 76.621094 34.113281 77.425781 34.300781 78.183594 C 35.671875 78.105469 36.453125 77.519531 36.605469 76.492188 C 36.453125 75.46875 35.671875 74.878906 34.300781 74.804688 C 34.113281 75.5625 34.96875 76.367188 36.199219 76.492188 " fill-opacity="1" fill-rule="evenodd"/><path fill="#162651" d="M 31.96875 76.957031 C 32.125 76.222656 33.175781 75.871094 34.292969 76.230469 L 34.769531 76.460938 C 34.183594 77.304688 33.226562 77.488281 31.96875 76.957031 " fill-opacity="1" fill-rule="evenodd"/><path fill="#162651" d="M 52.910156 73.84375 C 54.601562 75.382812 55.226562 75.179688 56.492188 76.304688 L 59.261719 76.304688 C 59.378906 76.449219 59.378906 76.597656 59.261719 76.753906 L 56.515625 76.753906 C 55.679688 77.421875 54.484375 78.183594 52.835938 78.675781 C 54.078125 77.921875 54.851562 77.164062 55.867188 76.488281 C 54.558594 75.597656 53.570312 74.714844 52.910156 73.84375 " fill-opacity="1" fill-rule="evenodd"/><path fill="#162651" d="M 77.632812 76.492188 C 78.867188 76.621094 79.722656 77.425781 79.53125 78.183594 C 78.160156 78.105469 77.382812 77.519531 77.226562 76.492188 C 77.382812 75.46875 78.160156 74.878906 79.53125 74.804688 C 79.722656 75.5625 78.867188 76.367188 77.632812 76.492188 " fill-opacity="1" fill-rule="evenodd"/><path fill="#162651" d="M 81.75 78.183594 C 80.378906 78.105469 79.597656 77.519531 79.445312 76.492188 C 79.597656 75.46875 80.378906 74.878906 81.75 74.804688 C 81.9375 75.5625 81.082031 76.367188 79.851562 76.492188 C 81.082031 76.621094 81.9375 77.425781 81.75 78.183594 " fill-opacity="1" fill-rule="evenodd"/><path fill="#162651" d="M 83.964844 78.183594 C 82.59375 78.105469 81.8125 77.519531 81.660156 76.492188 C 81.8125 75.46875 82.59375 74.878906 83.964844 74.804688 C 84.152344 75.5625 83.300781 76.367188 82.066406 76.492188 C 83.300781 76.621094 84.152344 77.425781 83.964844 78.183594 " fill-opacity="1" fill-rule="evenodd"/><path fill="#162651" d="M 86.179688 78.183594 C 84.808594 78.105469 84.03125 77.519531 83.878906 76.492188 C 84.03125 75.46875 84.808594 74.878906 86.179688 74.804688 C 86.371094 75.5625 85.515625 76.367188 84.28125 76.492188 C 85.515625 76.621094 86.371094 77.425781 86.179688 78.183594 " fill-opacity="1" fill-rule="evenodd"/><path fill="#162651" d="M 88.398438 78.183594 C 87.027344 78.105469 86.246094 77.519531 86.09375 76.492188 C 86.246094 75.46875 87.027344 74.878906 88.398438 74.804688 C 88.585938 75.5625 87.730469 76.367188 86.5 76.492188 C 87.730469 76.621094 88.585938 77.425781 88.398438 78.183594 " fill-opacity="1" fill-rule="evenodd"/><path fill="#162651" d="M 90.613281 78.183594 C 89.242188 78.105469 88.460938 77.519531 88.308594 76.492188 C 88.460938 75.46875 89.242188 74.878906 90.613281 74.804688 C 90.800781 75.5625 89.949219 76.367188 88.714844 76.492188 C 89.949219 76.621094 90.800781 77.425781 90.613281 78.183594 " fill-opacity="1" fill-rule="evenodd"/><path fill="#162651" d="M 92.828125 78.183594 C 91.457031 78.105469 90.679688 77.519531 90.527344 76.492188 C 90.679688 75.46875 91.457031 74.878906 92.828125 74.804688 C 93.019531 75.5625 92.164062 76.367188 90.929688 76.492188 C 92.164062 76.621094 93.019531 77.425781 92.828125 78.183594 " fill-opacity="1" fill-rule="evenodd"/><path fill="#162651" d="M 95.046875 78.183594 C 93.675781 78.105469 92.894531 77.519531 92.742188 76.492188 C 92.894531 75.46875 93.675781 74.878906 95.046875 74.804688 C 95.234375 75.5625 94.378906 76.367188 93.148438 76.492188 C 94.378906 76.621094 95.234375 77.425781 95.046875 78.183594 " fill-opacity="1" fill-rule="evenodd"/><path fill="#162651" d="M 95.363281 76.492188 C 96.597656 76.621094 97.449219 77.425781 97.261719 78.183594 C 95.890625 78.105469 95.109375 77.519531 94.957031 76.492188 C 95.109375 75.46875 95.890625 74.878906 97.261719 74.804688 C 97.449219 75.5625 96.597656 76.367188 95.363281 76.492188 " fill-opacity="1" fill-rule="evenodd"/><path fill="#162651" d="M 99.59375 76.957031 C 99.4375 76.222656 98.390625 75.871094 97.269531 76.230469 L 96.792969 76.460938 C 97.378906 77.304688 98.335938 77.488281 99.59375 76.957031 " fill-opacity="1" fill-rule="evenodd"/><path fill="#162651" d="M 78.652344 73.84375 C 76.960938 75.382812 76.335938 75.179688 75.070312 76.304688 L 72.300781 76.304688 C 72.183594 76.449219 72.183594 76.597656 72.300781 76.753906 L 75.046875 76.753906 C 75.882812 77.421875 77.078125 78.183594 78.726562 78.675781 C 77.488281 77.921875 76.710938 77.164062 75.695312 76.488281 C 77.003906 75.597656 77.992188 74.714844 78.652344 73.84375 " fill-opacity="1" fill-rule="evenodd"/><path fill="#fafaff" d="M 54.574219 46.445312 L 51.074219 43.925781 L 47.574219 46.445312 L 48.886719 42.335938 L 45.410156 39.785156 L 49.722656 39.765625 L 51.074219 35.671875 L 52.425781 39.765625 L 56.738281 39.785156 L 53.261719 42.335938 L 54.574219 46.445312 " fill-opacity="1" fill-rule="evenodd"/><path fill="#162651" d="M 67.53125 79.675781 L 65.542969 78.246094 L 63.558594 79.675781 L 64.304688 77.34375 L 62.332031 75.898438 L 64.777344 75.886719 L 65.542969 73.5625 L 66.3125 75.886719 L 68.757812 75.898438 L 66.785156 77.34375 L 67.53125 79.675781 " fill-opacity="1" fill-rule="evenodd"/><path fill="#162651" d="M 27.628906 68.835938 L 103.351562 68.835938 C 103.144531 69.742188 102.90625 70.636719 102.640625 71.519531 L 28.339844 71.519531 C 28.070312 70.636719 27.832031 69.742188 27.628906 68.835938 " fill-opacity="1" fill-rule="nonzero"/></svg>